<?xml version="1.0" encoding="utf-8" standalone="no"?>
<!DOCTYPE svg PUBLIC "-//W3C//DTD SVG 1.1//EN"
  "http://www.w3.org/Graphics/SVG/1.1/DTD/svg11.dtd">
<svg height="288pt" version="1.1" viewBox="0 0 432 288" width="432pt" xmlns="http://www.w3.org/2000/svg" xmlns:xlink="http://www.w3.org/1999/xlink">
 <metadata>
  <rdf:RDF xmlns:cc="http://creativecommons.org/ns#" xmlns:dc="http://purl.org/dc/elements/1.1/" xmlns:rdf="http://www.w3.org/1999/02/22-rdf-syntax-ns#">
   <cc:Work>
    <dc:type rdf:resource="http://purl.org/dc/dcmitype/StillImage"/>
    <dc:date>2022-03-15T16:42:44.726542</dc:date>
    <dc:format>image/svg+xml</dc:format>
    <dc:creator>
     <cc:Agent>
      <dc:title>Matplotlib v3.4.3, https://matplotlib.org/</dc:title>
     </cc:Agent>
    </dc:creator>
   </cc:Work>
  </rdf:RDF>
 </metadata>
 <defs>
  <style type="text/css">*{stroke-linecap:butt;stroke-linejoin:round;}</style>
 </defs>
 <g id="figure_1">
  <g id="patch_1">
   <path d="M 0 288 
L 432 288 
L 432 0 
L 0 0 
z
" style="fill:#ffffff;"/>
  </g>
  <g id="axes_1">
   <g id="patch_2">
    <path d="M 54 252 
L 388.8 252 
L 388.8 34.56 
L 54 34.56 
z
" style="fill:#ffffff;"/>
   </g>
   <g id="matplotlib.axis_1">
    <g id="xtick_1">
     <g id="text_1">
      <!-- −5 -->
      <g style="fill:#262626;" transform="translate(63.517401 266.157812)scale(0.1 -0.1)">
       <defs>
        <path d="M 3381 1997 
L 356 1997 
L 356 2522 
L 3381 2522 
L 3381 1997 
z
" id="ArialMT-2212" transform="scale(0.015625)"/>
        <path d="M 266 1200 
L 856 1250 
Q 922 819 1161 601 
Q 1400 384 1738 384 
Q 2144 384 2425 690 
Q 2706 997 2706 1503 
Q 2706 1984 2436 2262 
Q 2166 2541 1728 2541 
Q 1456 2541 1237 2417 
Q 1019 2294 894 2097 
L 366 2166 
L 809 4519 
L 3088 4519 
L 3088 3981 
L 1259 3981 
L 1013 2750 
Q 1425 3038 1878 3038 
Q 2478 3038 2890 2622 
Q 3303 2206 3303 1553 
Q 3303 931 2941 478 
Q 2500 -78 1738 -78 
Q 1113 -78 717 272 
Q 322 622 266 1200 
z
" id="ArialMT-35" transform="scale(0.015625)"/>
       </defs>
       <use xlink:href="#ArialMT-2212"/>
       <use x="58.398438" xlink:href="#ArialMT-35"/>
      </g>
     </g>
    </g>
    <g id="xtick_2">
     <g id="text_2">
      <!-- −4 -->
      <g style="fill:#262626;" transform="translate(106.99792 266.157812)scale(0.1 -0.1)">
       <defs>
        <path d="M 2069 0 
L 2069 1097 
L 81 1097 
L 81 1613 
L 2172 4581 
L 2631 4581 
L 2631 1613 
L 3250 1613 
L 3250 1097 
L 2631 1097 
L 2631 0 
L 2069 0 
z
M 2069 1613 
L 2069 3678 
L 634 1613 
L 2069 1613 
z
" id="ArialMT-34" transform="scale(0.015625)"/>
       </defs>
       <use xlink:href="#ArialMT-2212"/>
       <use x="58.398438" xlink:href="#ArialMT-34"/>
      </g>
     </g>
    </g>
    <g id="xtick_3">
     <g id="text_3">
      <!-- −3 -->
      <g style="fill:#262626;" transform="translate(150.47844 266.157812)scale(0.1 -0.1)">
       <defs>
        <path d="M 269 1209 
L 831 1284 
Q 928 806 1161 595 
Q 1394 384 1728 384 
Q 2125 384 2398 659 
Q 2672 934 2672 1341 
Q 2672 1728 2419 1979 
Q 2166 2231 1775 2231 
Q 1616 2231 1378 2169 
L 1441 2663 
Q 1497 2656 1531 2656 
Q 1891 2656 2178 2843 
Q 2466 3031 2466 3422 
Q 2466 3731 2256 3934 
Q 2047 4138 1716 4138 
Q 1388 4138 1169 3931 
Q 950 3725 888 3313 
L 325 3413 
Q 428 3978 793 4289 
Q 1159 4600 1703 4600 
Q 2078 4600 2393 4439 
Q 2709 4278 2876 4000 
Q 3044 3722 3044 3409 
Q 3044 3113 2884 2869 
Q 2725 2625 2413 2481 
Q 2819 2388 3044 2092 
Q 3269 1797 3269 1353 
Q 3269 753 2831 336 
Q 2394 -81 1725 -81 
Q 1122 -81 723 278 
Q 325 638 269 1209 
z
" id="ArialMT-33" transform="scale(0.015625)"/>
       </defs>
       <use xlink:href="#ArialMT-2212"/>
       <use x="58.398438" xlink:href="#ArialMT-33"/>
      </g>
     </g>
    </g>
    <g id="xtick_4">
     <g id="text_4">
      <!-- −2 -->
      <g style="fill:#262626;" transform="translate(193.958959 266.157812)scale(0.1 -0.1)">
       <defs>
        <path d="M 3222 541 
L 3222 0 
L 194 0 
Q 188 203 259 391 
Q 375 700 629 1000 
Q 884 1300 1366 1694 
Q 2113 2306 2375 2664 
Q 2638 3022 2638 3341 
Q 2638 3675 2398 3904 
Q 2159 4134 1775 4134 
Q 1369 4134 1125 3890 
Q 881 3647 878 3216 
L 300 3275 
Q 359 3922 746 4261 
Q 1134 4600 1788 4600 
Q 2447 4600 2831 4234 
Q 3216 3869 3216 3328 
Q 3216 3053 3103 2787 
Q 2991 2522 2730 2228 
Q 2469 1934 1863 1422 
Q 1356 997 1212 845 
Q 1069 694 975 541 
L 3222 541 
z
" id="ArialMT-32" transform="scale(0.015625)"/>
       </defs>
       <use xlink:href="#ArialMT-2212"/>
       <use x="58.398438" xlink:href="#ArialMT-32"/>
      </g>
     </g>
    </g>
    <g id="xtick_5">
     <g id="text_5">
      <!-- −1 -->
      <g style="fill:#262626;" transform="translate(237.439478 266.157812)scale(0.1 -0.1)">
       <defs>
        <path d="M 2384 0 
L 1822 0 
L 1822 3584 
Q 1619 3391 1289 3197 
Q 959 3003 697 2906 
L 697 3450 
Q 1169 3672 1522 3987 
Q 1875 4303 2022 4600 
L 2384 4600 
L 2384 0 
z
" id="ArialMT-31" transform="scale(0.015625)"/>
       </defs>
       <use xlink:href="#ArialMT-2212"/>
       <use x="58.398438" xlink:href="#ArialMT-31"/>
      </g>
     </g>
    </g>
    <g id="xtick_6">
     <g id="text_6">
      <!-- 0 -->
      <g style="fill:#262626;" transform="translate(283.84031 266.157812)scale(0.1 -0.1)">
       <defs>
        <path d="M 266 2259 
Q 266 3072 433 3567 
Q 600 4063 929 4331 
Q 1259 4600 1759 4600 
Q 2128 4600 2406 4451 
Q 2684 4303 2865 4023 
Q 3047 3744 3150 3342 
Q 3253 2941 3253 2259 
Q 3253 1453 3087 958 
Q 2922 463 2592 192 
Q 2263 -78 1759 -78 
Q 1097 -78 719 397 
Q 266 969 266 2259 
z
M 844 2259 
Q 844 1131 1108 757 
Q 1372 384 1759 384 
Q 2147 384 2411 759 
Q 2675 1134 2675 2259 
Q 2675 3391 2411 3762 
Q 2147 4134 1753 4134 
Q 1366 4134 1134 3806 
Q 844 3388 844 2259 
z
" id="ArialMT-30" transform="scale(0.015625)"/>
       </defs>
       <use xlink:href="#ArialMT-30"/>
      </g>
     </g>
    </g>
    <g id="xtick_7">
     <g id="text_7">
      <!-- 1 -->
      <g style="fill:#262626;" transform="translate(327.32083 266.157812)scale(0.1 -0.1)">
       <use xlink:href="#ArialMT-31"/>
      </g>
     </g>
    </g>
    <g id="xtick_8">
     <g id="text_8">
      <!-- 2 -->
      <g style="fill:#262626;" transform="translate(370.801349 266.157812)scale(0.1 -0.1)">
       <use xlink:href="#ArialMT-32"/>
      </g>
     </g>
    </g>
    <g id="text_9">
     <!-- aligned -->
     <g style="fill:#262626;" transform="translate(205.275781 279.303125)scale(0.1 -0.1)">
      <defs>
       <path d="M 2588 409 
Q 2275 144 1986 34 
Q 1697 -75 1366 -75 
Q 819 -75 525 192 
Q 231 459 231 875 
Q 231 1119 342 1320 
Q 453 1522 633 1644 
Q 813 1766 1038 1828 
Q 1203 1872 1538 1913 
Q 2219 1994 2541 2106 
Q 2544 2222 2544 2253 
Q 2544 2597 2384 2738 
Q 2169 2928 1744 2928 
Q 1347 2928 1158 2789 
Q 969 2650 878 2297 
L 328 2372 
Q 403 2725 575 2942 
Q 747 3159 1072 3276 
Q 1397 3394 1825 3394 
Q 2250 3394 2515 3294 
Q 2781 3194 2906 3042 
Q 3031 2891 3081 2659 
Q 3109 2516 3109 2141 
L 3109 1391 
Q 3109 606 3145 398 
Q 3181 191 3288 0 
L 2700 0 
Q 2613 175 2588 409 
z
M 2541 1666 
Q 2234 1541 1622 1453 
Q 1275 1403 1131 1340 
Q 988 1278 909 1158 
Q 831 1038 831 891 
Q 831 666 1001 516 
Q 1172 366 1500 366 
Q 1825 366 2078 508 
Q 2331 650 2450 897 
Q 2541 1088 2541 1459 
L 2541 1666 
z
" id="ArialMT-61" transform="scale(0.015625)"/>
       <path d="M 409 0 
L 409 4581 
L 972 4581 
L 972 0 
L 409 0 
z
" id="ArialMT-6c" transform="scale(0.015625)"/>
       <path d="M 425 3934 
L 425 4581 
L 988 4581 
L 988 3934 
L 425 3934 
z
M 425 0 
L 425 3319 
L 988 3319 
L 988 0 
L 425 0 
z
" id="ArialMT-69" transform="scale(0.015625)"/>
       <path d="M 319 -275 
L 866 -356 
Q 900 -609 1056 -725 
Q 1266 -881 1628 -881 
Q 2019 -881 2231 -725 
Q 2444 -569 2519 -288 
Q 2563 -116 2559 434 
Q 2191 0 1641 0 
Q 956 0 581 494 
Q 206 988 206 1678 
Q 206 2153 378 2554 
Q 550 2956 876 3175 
Q 1203 3394 1644 3394 
Q 2231 3394 2613 2919 
L 2613 3319 
L 3131 3319 
L 3131 450 
Q 3131 -325 2973 -648 
Q 2816 -972 2473 -1159 
Q 2131 -1347 1631 -1347 
Q 1038 -1347 672 -1080 
Q 306 -813 319 -275 
z
M 784 1719 
Q 784 1066 1043 766 
Q 1303 466 1694 466 
Q 2081 466 2343 764 
Q 2606 1063 2606 1700 
Q 2606 2309 2336 2618 
Q 2066 2928 1684 2928 
Q 1309 2928 1046 2623 
Q 784 2319 784 1719 
z
" id="ArialMT-67" transform="scale(0.015625)"/>
       <path d="M 422 0 
L 422 3319 
L 928 3319 
L 928 2847 
Q 1294 3394 1984 3394 
Q 2284 3394 2536 3286 
Q 2788 3178 2913 3003 
Q 3038 2828 3088 2588 
Q 3119 2431 3119 2041 
L 3119 0 
L 2556 0 
L 2556 2019 
Q 2556 2363 2490 2533 
Q 2425 2703 2258 2804 
Q 2091 2906 1866 2906 
Q 1506 2906 1245 2678 
Q 984 2450 984 1813 
L 984 0 
L 422 0 
z
" id="ArialMT-6e" transform="scale(0.015625)"/>
       <path d="M 2694 1069 
L 3275 997 
Q 3138 488 2766 206 
Q 2394 -75 1816 -75 
Q 1088 -75 661 373 
Q 234 822 234 1631 
Q 234 2469 665 2931 
Q 1097 3394 1784 3394 
Q 2450 3394 2872 2941 
Q 3294 2488 3294 1666 
Q 3294 1616 3291 1516 
L 816 1516 
Q 847 969 1125 678 
Q 1403 388 1819 388 
Q 2128 388 2347 550 
Q 2566 713 2694 1069 
z
M 847 1978 
L 2700 1978 
Q 2663 2397 2488 2606 
Q 2219 2931 1791 2931 
Q 1403 2931 1139 2672 
Q 875 2413 847 1978 
z
" id="ArialMT-65" transform="scale(0.015625)"/>
       <path d="M 2575 0 
L 2575 419 
Q 2259 -75 1647 -75 
Q 1250 -75 917 144 
Q 584 363 401 755 
Q 219 1147 219 1656 
Q 219 2153 384 2558 
Q 550 2963 881 3178 
Q 1213 3394 1622 3394 
Q 1922 3394 2156 3267 
Q 2391 3141 2538 2938 
L 2538 4581 
L 3097 4581 
L 3097 0 
L 2575 0 
z
M 797 1656 
Q 797 1019 1065 703 
Q 1334 388 1700 388 
Q 2069 388 2326 689 
Q 2584 991 2584 1609 
Q 2584 2291 2321 2609 
Q 2059 2928 1675 2928 
Q 1300 2928 1048 2622 
Q 797 2316 797 1656 
z
" id="ArialMT-64" transform="scale(0.015625)"/>
      </defs>
      <use xlink:href="#ArialMT-61"/>
      <use x="55.615234" xlink:href="#ArialMT-6c"/>
      <use x="77.832031" xlink:href="#ArialMT-69"/>
      <use x="100.048828" xlink:href="#ArialMT-67"/>
      <use x="155.664062" xlink:href="#ArialMT-6e"/>
      <use x="211.279297" xlink:href="#ArialMT-65"/>
      <use x="266.894531" xlink:href="#ArialMT-64"/>
     </g>
    </g>
   </g>
   <g id="matplotlib.axis_2">
    <g id="ytick_1">
     <g id="text_10">
      <!-- −0.3 -->
      <g style="fill:#262626;" transform="translate(27.259375 231.3612)scale(0.1 -0.1)">
       <defs>
        <path d="M 581 0 
L 581 641 
L 1222 641 
L 1222 0 
L 581 0 
z
" id="ArialMT-2e" transform="scale(0.015625)"/>
       </defs>
       <use xlink:href="#ArialMT-2212"/>
       <use x="58.398438" xlink:href="#ArialMT-30"/>
       <use x="114.013672" xlink:href="#ArialMT-2e"/>
       <use x="141.796875" xlink:href="#ArialMT-33"/>
      </g>
     </g>
    </g>
    <g id="ytick_2">
     <g id="text_11">
      <!-- −0.2 -->
      <g style="fill:#262626;" transform="translate(27.259375 194.821395)scale(0.1 -0.1)">
       <use xlink:href="#ArialMT-2212"/>
       <use x="58.398438" xlink:href="#ArialMT-30"/>
       <use x="114.013672" xlink:href="#ArialMT-2e"/>
       <use x="141.796875" xlink:href="#ArialMT-32"/>
      </g>
     </g>
    </g>
    <g id="ytick_3">
     <g id="text_12">
      <!-- −0.1 -->
      <g style="fill:#262626;" transform="translate(27.259375 158.28159)scale(0.1 -0.1)">
       <use xlink:href="#ArialMT-2212"/>
       <use x="58.398438" xlink:href="#ArialMT-30"/>
       <use x="114.013672" xlink:href="#ArialMT-2e"/>
       <use x="141.796875" xlink:href="#ArialMT-31"/>
      </g>
     </g>
    </g>
    <g id="ytick_4">
     <g id="text_13">
      <!-- 0.0 -->
      <g style="fill:#262626;" transform="translate(33.1 121.741785)scale(0.1 -0.1)">
       <use xlink:href="#ArialMT-30"/>
       <use x="55.615234" xlink:href="#ArialMT-2e"/>
       <use x="83.398438" xlink:href="#ArialMT-30"/>
      </g>
     </g>
    </g>
    <g id="ytick_5">
     <g id="text_14">
      <!-- 0.1 -->
      <g style="fill:#262626;" transform="translate(33.1 85.20198)scale(0.1 -0.1)">
       <use xlink:href="#ArialMT-30"/>
       <use x="55.615234" xlink:href="#ArialMT-2e"/>
       <use x="83.398438" xlink:href="#ArialMT-31"/>
      </g>
     </g>
    </g>
    <g id="ytick_6">
     <g id="text_15">
      <!-- 0.2 -->
      <g style="fill:#262626;" transform="translate(33.1 48.662175)scale(0.1 -0.1)">
       <use xlink:href="#ArialMT-30"/>
       <use x="55.615234" xlink:href="#ArialMT-2e"/>
       <use x="83.398438" xlink:href="#ArialMT-32"/>
      </g>
     </g>
    </g>
    <g id="text_16">
     <!-- value -->
     <g style="fill:#262626;" transform="translate(21.271875 155.232344)rotate(-90)scale(0.1 -0.1)">
      <defs>
       <path d="M 1344 0 
L 81 3319 
L 675 3319 
L 1388 1331 
Q 1503 1009 1600 663 
Q 1675 925 1809 1294 
L 2547 3319 
L 3125 3319 
L 1869 0 
L 1344 0 
z
" id="ArialMT-76" transform="scale(0.015625)"/>
       <path d="M 2597 0 
L 2597 488 
Q 2209 -75 1544 -75 
Q 1250 -75 995 37 
Q 741 150 617 320 
Q 494 491 444 738 
Q 409 903 409 1263 
L 409 3319 
L 972 3319 
L 972 1478 
Q 972 1038 1006 884 
Q 1059 663 1231 536 
Q 1403 409 1656 409 
Q 1909 409 2131 539 
Q 2353 669 2445 892 
Q 2538 1116 2538 1541 
L 2538 3319 
L 3100 3319 
L 3100 0 
L 2597 0 
z
" id="ArialMT-75" transform="scale(0.015625)"/>
      </defs>
      <use xlink:href="#ArialMT-76"/>
      <use x="50" xlink:href="#ArialMT-61"/>
      <use x="105.615234" xlink:href="#ArialMT-6c"/>
      <use x="127.832031" xlink:href="#ArialMT-75"/>
      <use x="183.447266" xlink:href="#ArialMT-65"/>
     </g>
    </g>
   </g>
   <g id="PolyCollection_1">
    <defs>
     <path d="M 69.218182 -234.784945 
L 69.218182 -160.665598 
L 73.566234 -156.214366 
L 77.914286 -149.922421 
L 82.262338 -146.822775 
L 86.61039 -138.225435 
L 90.958442 -133.082927 
L 95.306494 -135.624279 
L 99.654545 -139.8675 
L 104.002597 -142.992032 
L 108.350649 -149.686959 
L 112.698701 -152.989213 
L 117.046753 -155.014106 
L 121.394805 -154.46961 
L 125.742857 -155.58168 
L 130.090909 -161.17677 
L 134.438961 -169.997292 
L 138.787013 -178.042015 
L 143.135065 -182.646176 
L 147.483117 -185.369989 
L 151.831169 -186.873306 
L 156.179221 -186.882225 
L 160.527273 -185.10018 
L 164.875325 -184.338506 
L 169.223377 -188.091626 
L 173.571429 -190.53359 
L 177.919481 -191.312375 
L 182.267532 -190.89256 
L 186.615584 -192.123257 
L 190.963636 -192.580637 
L 195.311688 -188.856031 
L 199.65974 -193.071097 
L 204.007792 -197.734138 
L 208.355844 -201.868395 
L 212.703896 -202.63244 
L 217.051948 -202.666445 
L 221.4 -203.587095 
L 225.748052 -202.555255 
L 230.096104 -204.782359 
L 234.444156 -202.030643 
L 238.792208 -198.195017 
L 243.14026 -192.743067 
L 247.488312 -189.854833 
L 251.836364 -184.783965 
L 256.184416 -177.496531 
L 260.532468 -169.994542 
L 264.880519 -160.581706 
L 269.228571 -151.787512 
L 273.576623 -141.398684 
L 277.924675 -135.079279 
L 282.272727 -127.356939 
L 286.620779 -121.197526 
L 290.968831 -112.326092 
L 295.316883 -107.301755 
L 299.664935 -102.925566 
L 304.012987 -100.862967 
L 308.361039 -98.990752 
L 312.709091 -99.699773 
L 317.057143 -100.447392 
L 321.405195 -100.466987 
L 325.753247 -100.279488 
L 330.101299 -95.606468 
L 334.449351 -92.948716 
L 338.797403 -90.225738 
L 343.145455 -82.948826 
L 347.493506 -80.267267 
L 351.841558 -76.335073 
L 356.18961 -76.291628 
L 360.537662 -75.114919 
L 364.885714 -71.892816 
L 369.233766 -59.936612 
L 373.581818 -45.883636 
L 373.581818 -113.770467 
L 373.581818 -113.770467 
L 369.233766 -116.685783 
L 364.885714 -125.232877 
L 360.537662 -125.375338 
L 356.18961 -126.519096 
L 351.841558 -126.755828 
L 347.493506 -127.766435 
L 343.145455 -132.94832 
L 338.797403 -137.242648 
L 334.449351 -141.285015 
L 330.101299 -143.318528 
L 325.753247 -145.457485 
L 321.405195 -143.647377 
L 317.057143 -144.29636 
L 312.709091 -142.236562 
L 308.361039 -140.693485 
L 304.012987 -143.228329 
L 299.664935 -142.968546 
L 295.316883 -146.566258 
L 290.968831 -153.02381 
L 286.620779 -160.789547 
L 282.272727 -169.900069 
L 277.924675 -176.214413 
L 273.576623 -183.907508 
L 269.228571 -192.438592 
L 264.880519 -200.432052 
L 260.532468 -210.546351 
L 256.184416 -216.310066 
L 251.836364 -223.648239 
L 247.488312 -227.963246 
L 243.14026 -232.02456 
L 238.792208 -235.096129 
L 234.444156 -242.59333 
L 230.096104 -243.556364 
L 225.748052 -241.823651 
L 221.4 -239.050928 
L 217.051948 -238.435491 
L 212.703896 -238.494244 
L 208.355844 -236.394991 
L 204.007792 -232.673728 
L 199.65974 -228.263072 
L 195.311688 -223.417554 
L 190.963636 -224.691047 
L 186.615584 -224.185749 
L 182.267532 -223.250176 
L 177.919481 -222.870151 
L 173.571429 -220.834965 
L 169.223377 -218.953245 
L 164.875325 -217.841918 
L 160.527273 -219.32234 
L 156.179221 -220.850812 
L 151.831169 -222.80572 
L 147.483117 -221.545288 
L 143.135065 -220.202156 
L 138.787013 -215.018853 
L 134.438961 -207.633165 
L 130.090909 -200.111851 
L 125.742857 -196.659592 
L 121.394805 -196.626065 
L 117.046753 -194.302893 
L 112.698701 -195.429076 
L 108.350649 -192.799162 
L 104.002597 -189.297208 
L 99.654545 -185.478154 
L 95.306494 -184.61529 
L 90.958442 -185.589461 
L 86.61039 -186.810395 
L 82.262338 -199.905083 
L 77.914286 -205.539765 
L 73.566234 -218.959306 
L 69.218182 -234.784945 
z
" id="m8502e5f2d5" style="stroke:#000000;stroke-opacity:0.2;"/>
    </defs>
    <g clip-path="url(#p5785f38d53)">
     <use style="fill-opacity:0.2;stroke:#000000;stroke-opacity:0.2;" x="0" xlink:href="#m8502e5f2d5" y="288"/>
    </g>
   </g>
   <g id="line2d_1">
    <path clip-path="url(#p5785f38d53)" d="M 69.218182 90.994021 
L 73.566234 100.484024 
L 77.914286 109.769112 
L 82.262338 116.873026 
L 86.61039 123.229211 
L 90.958442 128.023921 
L 95.306494 128.156821 
L 99.654545 125.18481 
L 104.002597 120.715099 
L 108.350649 116.675152 
L 112.698701 114.640777 
L 117.046753 113.462427 
L 121.394805 112.867669 
L 125.742857 111.299057 
L 130.090909 107.010319 
L 134.438961 99.59545 
L 138.787013 91.847538 
L 143.135065 87.000151 
L 147.483117 84.443038 
L 151.831169 83.011013 
L 156.179221 83.835695 
L 160.527273 85.846074 
L 164.875325 86.723442 
L 169.223377 84.994776 
L 173.571429 82.559965 
L 177.919481 81.42351 
L 182.267532 81.152417 
L 186.615584 79.890081 
L 190.963636 80.250285 
L 195.311688 81.153534 
L 199.65974 77.77019 
L 204.007792 72.565138 
L 208.355844 69.733897 
L 212.703896 68.390795 
L 217.051948 67.341355 
L 221.4 65.872898 
L 225.748052 64.196109 
L 230.096104 63.843921 
L 234.444156 66.142075 
L 238.792208 71.006635 
L 243.14026 75.413573 
L 247.488312 78.899466 
L 251.836364 84.00176 
L 256.184416 90.718139 
L 260.532468 98.224242 
L 264.880519 106.704183 
L 269.228571 116.265058 
L 273.576623 125.345589 
L 277.924675 132.305361 
L 282.272727 138.524919 
L 286.620779 146.159546 
L 290.968831 154.87512 
L 295.316883 161.190382 
L 299.664935 164.956706 
L 304.012987 166.787767 
L 308.361039 167.371162 
L 312.709091 167.066592 
L 317.057143 166.068242 
L 321.405195 165.997489 
L 325.753247 166.73838 
L 330.101299 168.020851 
L 334.449351 170.865546 
L 338.797403 174.613736 
L 343.145455 179.265701 
L 347.493506 183.249876 
L 351.841558 185.850557 
L 356.18961 187.413775 
L 360.537662 187.950502 
L 364.885714 190.431834 
L 369.233766 198.931355 
L 373.581818 209.381571 
" style="fill:none;stroke:#000000;stroke-linecap:round;stroke-width:1.5;"/>
   </g>
   <g id="patch_3">
    <path d="M 54 252 
L 54 34.56 
" style="fill:none;stroke:#cccccc;stroke-linecap:square;stroke-linejoin:miter;stroke-width:0.8;"/>
   </g>
   <g id="patch_4">
    <path d="M 388.8 252 
L 388.8 34.56 
" style="fill:none;stroke:#cccccc;stroke-linecap:square;stroke-linejoin:miter;stroke-width:0.8;"/>
   </g>
   <g id="patch_5">
    <path d="M 54 252 
L 388.8 252 
" style="fill:none;stroke:#cccccc;stroke-linecap:square;stroke-linejoin:miter;stroke-width:0.8;"/>
   </g>
   <g id="patch_6">
    <path d="M 54 34.56 
L 388.8 34.56 
" style="fill:none;stroke:#cccccc;stroke-linecap:square;stroke-linejoin:miter;stroke-width:0.8;"/>
   </g>
  </g>
 </g>
 <defs>
  <clipPath id="p5785f38d53">
   <rect height="217.44" width="334.8" x="54" y="34.56"/>
  </clipPath>
 </defs>
</svg>
